<?xml version="1.0" encoding="iso-8859-1"?>
<!-- Generator: Adobe Illustrator 18.0.0, SVG Export Plug-In . SVG Version: 6.00 Build 0)  -->
<!DOCTYPE svg PUBLIC "-//W3C//DTD SVG 1.1//EN" "http://www.w3.org/Graphics/SVG/1.1/DTD/svg11.dtd">
<svg version="1.1" id="Capa_1" xmlns="http://www.w3.org/2000/svg" xmlns:xlink="http://www.w3.org/1999/xlink" x="0px" y="0px"
	 viewBox="0 0 131.236 131.236" style="enable-background:new 0 0 131.236 131.236;" xml:space="preserve">
<g>
	<path style="fill-rule:evenodd;clip-rule:evenodd;fill:#FFDECC;" d="M53.88,77.951C27.928,89.328,20.143,95.393,17.066,98.117
		c-4.742,4.196-7.365,19.838-10.162,33.119h58.715h58.714c-2.797-13.281-5.42-28.923-10.162-33.119
		c-3.077-2.724-10.577-8.633-36.528-20.011L53.88,77.951z"/>
	<path style="fill-rule:evenodd;clip-rule:evenodd;fill:#B6DBFC;" d="M53.88,77.951C27.927,89.328,20.143,95.393,17.066,98.117
		c-4.742,4.196-7.365,19.838-10.163,33.119h58.716h58.714c-2.797-13.281-5.42-28.923-10.162-33.119
		c-3.077-2.724-10.577-8.633-36.528-20.011L53.88,77.951z"/>
	<path style="fill-rule:evenodd;clip-rule:evenodd;fill:#FFDECC;" d="M78.218,55.272v28.767c-6.931,8.488-18.271,8.194-25.201,0
		V55.272C53.017,39.739,78.218,39.739,78.218,55.272z"/>
	<path style="fill-rule:evenodd;clip-rule:evenodd;fill:#F7C5AA;" d="M78.218,55.272v19.26c-4.768,3.476-9.363,5.423-12.6,5.423
		c-3.236,0-7.833-1.947-12.602-5.423v-19.26C53.017,39.739,78.218,39.739,78.218,55.272z"/>
	<path style="fill-rule:evenodd;clip-rule:evenodd;fill:#FFDECC;" d="M65.619,3.625c-42.292,0-27.083,51.102-24.32,55.169
		c3.046,4.486,17.486,16.376,24.32,16.376c6.832,0,21.273-11.89,24.319-16.376C92.701,54.727,107.91,3.625,65.619,3.625z"/>
	
		<ellipse transform="matrix(-0.3127 -0.9498 0.9498 -0.3127 5.054 91.9301)" style="fill-rule:evenodd;clip-rule:evenodd;fill:#FFDECC;" cx="35.786" cy="44.137" rx="7.317" ry="4.231"/>
	
		<ellipse transform="matrix(0.3128 -0.9498 0.9498 0.3128 24.1158 121.604)" style="fill-rule:evenodd;clip-rule:evenodd;fill:#FFDECC;" cx="96.096" cy="44.136" rx="7.316" ry="4.231"/>
	<path style="fill-rule:evenodd;clip-rule:evenodd;fill:#FF690F;" d="M65.678,18.16c-13.089,0.066-25.304-0.546-27.801,28.128
		c-6.351-22.427,2.33-46.492,27.337-46.286c25.883,0.213,35.223,24.035,28.074,46.313C87.465,15.556,77.513,18.101,65.678,18.16z"/>
	<path style="fill-rule:evenodd;clip-rule:evenodd;fill:#FF690F;" d="M66.149,66.645c6.156-0.28,1.032,6.912,8.867,2.714
		c7.836-4.197,7.495-16.427,3.578-16.707c-3.905-0.279-7.106,2.499-12.668,2.519v-2.111c4.372-0.063,11.872-4.372,14.891-0.939
		c4.54,5.161,0.994,14.916-2.885,17.448c-4.395,2.868-8.892,5.432-12.006,5.595v-8.524C66,66.639,66.073,66.641,66.149,66.645z
		 M65.926,55.17h-0.058c-5.597,0-8.342-2.518-12.26-2.237c-3.918,0.28-5.091,11.953,2.745,16.15
		c7.739,4.146,3.741-2.549,9.572-2.445v8.524c-0.104,0.006-0.207,0.008-0.308,0.008c-2.704,0-6.607-1.729-10.512-4.284
		c-6.224-4.072-9.055-13.754-3.89-18.578c3.271-3.054,10.256,0.752,14.613,0.752l0.096-0.001V55.17z"/>
	<path style="fill-rule:evenodd;clip-rule:evenodd;fill:#B88053;" d="M51.906,56.21c9.257,3.58,19.714,3.231,27.118,0
		C76.064,63.872,56.123,63.935,51.906,56.21z"/>
	<path style="fill-rule:evenodd;clip-rule:evenodd;fill:#B88053;" d="M54.648,54.706c-1.705,1.418-2.773,3.497-2.947,5.294
		C50.53,58.027,52.685,54.09,54.648,54.706z"/>
	<path style="fill-rule:evenodd;clip-rule:evenodd;fill:#B88053;" d="M76.092,54.706c1.705,1.418,2.773,3.497,2.947,5.294
		C80.21,58.027,78.054,54.09,76.092,54.706z"/>
	<polygon style="fill-rule:evenodd;clip-rule:evenodd;fill:#86BCEB;" points="51.822,77.643 42.884,82.479 55.843,100.443 
		65.675,91.116 	"/>
	<polygon style="fill-rule:evenodd;clip-rule:evenodd;fill:#86BCEB;" points="79.529,77.643 88.467,82.479 75.508,100.443 
		65.675,91.116 	"/>
	<path style="fill-rule:evenodd;clip-rule:evenodd;fill:#FFFFFF;" d="M60.2,96.131l3.052,4.728c1.577,0,3.155,0,4.734,0l3.051-4.728
		l-5.361-5.146L60.2,96.131z"/>
	<polygon style="fill-rule:evenodd;clip-rule:evenodd;fill:#FFFFFF;" points="63.252,100.859 58.906,131.236 72.331,131.236 
		67.986,100.859 	"/>
	<g>
		<path style="fill-rule:evenodd;clip-rule:evenodd;fill:#86BCEB;" d="M30.831,131.236h2.012c-0.09-8.941-0.09-15.386-0.09-15.386
			S31.862,122.547,30.831,131.236z"/>
		<path style="fill-rule:evenodd;clip-rule:evenodd;fill:#86BCEB;" d="M100.405,131.236h-2.012
			c0.09-8.941,0.091-15.386,0.091-15.386S99.375,122.547,100.405,131.236z"/>
	</g>
</g>
<g>
</g>
<g>
</g>
<g>
</g>
<g>
</g>
<g>
</g>
<g>
</g>
<g>
</g>
<g>
</g>
<g>
</g>
<g>
</g>
<g>
</g>
<g>
</g>
<g>
</g>
<g>
</g>
<g>
</g>
</svg>
